<svg width="188" height="47" viewBox="0 0 188 47" fill="none" xmlns="http://www.w3.org/2000/svg">
<g clip-path="url(#clip0_75_425)">
<path d="M23.6191 47.1116L44.1816 35.3455V11.8337L23.6191 23.5984V47.1116Z" fill="#000001"/>
<path d="M28.0254 36.066V39.6563L36.8379 34.434V30.8438L28.0254 36.066Z" fill="#174A5F"/>
<path d="M23.6191 0.111633L3.05664 11.8337V35.3455L23.6191 47.1116V23.5984L44.1816 11.8337L23.6191 0.111633Z" fill="url(#paint0_linear_75_425)"/>
</g>
<path d="M66.1921 14.315C67.5241 14.315 68.6671 14.567 69.6211 15.071C70.5751 15.557 71.3131 16.232 71.8351 17.096C72.8071 18.77 73.2931 20.813 73.2931 23.225C73.2931 26.573 72.6271 28.994 71.2951 30.488C70.7731 31.046 70.0801 31.505 69.2161 31.865C68.3521 32.225 67.3441 32.405 66.1921 32.405C64.0141 32.405 62.2501 32.153 60.9001 31.649C61.1521 29.543 61.2781 26.69 61.2781 23.09C61.2781 19.472 61.1251 16.799 60.8191 15.071C62.3671 14.567 64.1581 14.315 66.1921 14.315ZM66.1921 30.488C69.3781 30.488 70.9711 28.067 70.9711 23.225C70.9711 21.839 70.8271 20.624 70.5391 19.58C70.2511 18.536 69.7381 17.663 69.0001 16.961C68.2621 16.259 67.3711 15.908 66.3271 15.908C65.3011 15.908 64.3561 16.079 63.4921 16.421C63.3661 17.861 63.3031 20.066 63.3031 23.036C63.3031 25.988 63.3751 28.283 63.5191 29.921C64.3651 30.299 65.2561 30.488 66.1921 30.488ZM79.7845 29.948C80.4145 30.002 81.5035 30.029 83.0515 30.029C84.5995 30.029 85.8505 29.948 86.8045 29.786C86.9485 30.254 87.0205 30.713 87.0205 31.163C87.0205 31.595 86.9845 31.973 86.9125 32.297C86.5705 32.207 85.8505 32.117 84.7525 32.027C83.6545 31.955 82.4215 31.919 81.0535 31.919C79.6855 31.919 78.3985 31.982 77.1925 32.108C77.4445 29.624 77.5705 26.609 77.5705 23.063C77.5705 19.517 77.3995 16.682 77.0575 14.558C78.2635 14.684 79.5595 14.747 80.9455 14.747C82.3315 14.747 83.5645 14.711 84.6445 14.639C85.7425 14.549 86.4535 14.459 86.7775 14.369C86.8495 14.693 86.8855 15.053 86.8855 15.449C86.8855 15.845 86.8135 16.277 86.6695 16.745C85.7155 16.583 84.4825 16.502 82.9705 16.502C81.4585 16.502 80.3875 16.529 79.7575 16.583C79.6495 17.609 79.5955 19.463 79.5955 22.145C79.9735 22.163 80.8825 22.172 82.3225 22.172C83.7625 22.172 84.9325 22.073 85.8325 21.875C85.9225 22.451 85.9675 22.928 85.9675 23.306C85.9675 23.666 85.9585 23.963 85.9405 24.197C85.0945 24.053 84.0235 23.981 82.7275 23.981C81.4315 23.981 80.3875 23.999 79.5955 24.035C79.5955 26.393 79.6585 28.364 79.7845 29.948ZM91.1395 32.108C91.3915 29.624 91.5175 26.546 91.5175 22.874C91.5175 19.184 91.3645 16.475 91.0585 14.747C91.5265 14.567 91.9945 14.477 92.4625 14.477C92.9305 14.477 93.4165 14.495 93.9205 14.531C93.6685 16.529 93.5425 19.22 93.5425 22.604C93.5425 25.97 93.6055 28.418 93.7315 29.948C94.3615 30.002 95.3155 30.029 96.5935 30.029C97.8715 30.029 98.9875 29.948 99.9415 29.786C100.086 30.254 100.158 30.713 100.158 31.163C100.158 31.595 100.122 31.973 100.05 32.297C99.7075 32.207 98.9875 32.117 97.8895 32.027C96.7915 31.955 95.6935 31.919 94.5955 31.919C93.4975 31.919 92.3455 31.982 91.1395 32.108ZM105.889 16.502C105.799 17.906 105.754 20.588 105.754 24.548C105.754 28.508 105.907 30.974 106.213 31.946C105.619 32.126 105.07 32.216 104.566 32.216C104.062 32.216 103.657 32.198 103.351 32.162C103.603 30.056 103.729 27.302 103.729 23.9C103.729 20.48 103.666 18.014 103.54 16.502C101.074 16.61 99.4811 16.736 98.7611 16.88C98.6891 16.628 98.6531 16.286 98.6531 15.854C98.6531 15.422 98.7251 14.972 98.8691 14.504C100.201 14.666 101.812 14.747 103.702 14.747C107.518 14.747 109.876 14.621 110.776 14.369C110.848 14.693 110.884 15.053 110.884 15.449C110.884 15.845 110.812 16.277 110.668 16.745C109.282 16.619 107.689 16.538 105.889 16.502ZM120.675 27.194C119.793 27.14 118.686 27.113 117.354 27.113C116.04 27.113 114.924 27.149 114.006 27.221C113.466 29.453 113.07 31.136 112.818 32.27C112.494 32.306 112.17 32.324 111.846 32.324C111.54 32.324 111.045 32.234 110.361 32.054C113.295 24.242 115.005 18.473 115.491 14.747C116.013 14.567 116.697 14.477 117.543 14.477C118.389 14.477 119.073 14.567 119.595 14.747C120.081 18.473 121.791 24.242 124.725 32.054C124.077 32.234 123.501 32.324 122.997 32.324C122.511 32.324 122.133 32.306 121.863 32.27C121.557 30.92 121.161 29.228 120.675 27.194ZM114.465 25.331C115.293 25.349 116.166 25.358 117.084 25.358C118.002 25.358 119.037 25.34 120.189 25.304C119.379 22.154 118.488 19.184 117.516 16.394H117.354C116.292 19.058 115.329 22.037 114.465 25.331ZM133.986 32.108C134.238 29.624 134.364 26.546 134.364 22.874C134.364 19.184 134.211 16.475 133.905 14.747C134.373 14.567 134.841 14.477 135.309 14.477C135.777 14.477 136.263 14.495 136.767 14.531C136.515 16.529 136.389 19.22 136.389 22.604C136.389 25.97 136.452 28.418 136.578 29.948C137.208 30.002 138.162 30.029 139.44 30.029C140.718 30.029 141.834 29.948 142.788 29.786C142.932 30.254 143.004 30.713 143.004 31.163C143.004 31.595 142.968 31.973 142.896 32.297C142.554 32.207 141.834 32.117 140.736 32.027C139.638 31.955 138.54 31.919 137.442 31.919C136.344 31.919 135.192 31.982 133.986 32.108ZM154.03 27.194C153.148 27.14 152.041 27.113 150.709 27.113C149.395 27.113 148.279 27.149 147.361 27.221C146.821 29.453 146.425 31.136 146.173 32.27C145.849 32.306 145.525 32.324 145.201 32.324C144.895 32.324 144.4 32.234 143.716 32.054C146.65 24.242 148.36 18.473 148.846 14.747C149.368 14.567 150.052 14.477 150.898 14.477C151.744 14.477 152.428 14.567 152.95 14.747C153.436 18.473 155.146 24.242 158.08 32.054C157.432 32.234 156.856 32.324 156.352 32.324C155.866 32.324 155.488 32.306 155.218 32.27C154.912 30.92 154.516 29.228 154.03 27.194ZM147.82 25.331C148.648 25.349 149.521 25.358 150.439 25.358C151.357 25.358 152.392 25.34 153.544 25.304C152.734 22.154 151.843 19.184 150.871 16.394H150.709C149.647 19.058 148.684 22.037 147.82 25.331ZM161.28 31.649C161.532 29.543 161.658 26.69 161.658 23.09C161.658 19.472 161.505 16.799 161.199 15.071C162.621 14.567 164.286 14.315 166.194 14.315C168.12 14.315 169.533 14.747 170.433 15.611C171.333 16.475 171.783 17.744 171.783 19.418C171.783 21.074 171.207 22.334 170.055 23.198C171.981 23.954 172.944 25.331 172.944 27.329C172.944 30.713 170.883 32.405 166.761 32.405C164.583 32.405 162.756 32.153 161.28 31.649ZM165.249 21.956C165.645 22.226 166.248 22.361 167.058 22.361C167.886 22.361 168.489 22.082 168.867 21.524C169.245 20.948 169.434 20.192 169.434 19.256C169.434 18.32 169.173 17.519 168.651 16.853C168.147 16.187 167.301 15.854 166.113 15.854C165.447 15.854 164.709 16.016 163.899 16.34C163.755 17.798 163.683 19.949 163.683 22.793C163.683 25.637 163.755 28.013 163.899 29.921C164.943 30.335 165.906 30.542 166.788 30.542C169.326 30.542 170.595 29.471 170.595 27.329C170.595 25.511 169.758 24.413 168.084 24.035C167.598 24.125 167.085 24.17 166.545 24.17C166.005 24.17 165.384 24.035 164.682 23.765C164.682 22.937 164.871 22.334 165.249 21.956ZM176.675 28.22C177.215 28.976 177.872 29.579 178.646 30.029C179.438 30.461 180.293 30.677 181.211 30.677C182.129 30.677 182.822 30.425 183.29 29.921C183.776 29.417 184.019 28.805 184.019 28.085C184.019 27.365 183.731 26.717 183.155 26.141C182.579 25.565 181.877 25.07 181.049 24.656C180.239 24.242 179.429 23.81 178.619 23.36C177.809 22.892 177.116 22.271 176.54 21.497C175.964 20.723 175.676 19.751 175.676 18.581C175.676 17.411 176.09 16.412 176.918 15.584C177.764 14.738 179.078 14.315 180.86 14.315C182.642 14.315 183.947 14.756 184.775 15.638C185.621 16.52 186.044 17.672 186.044 19.094C186.044 19.31 186.017 19.535 185.963 19.769C185.495 19.931 185.027 20.012 184.559 20.012C184.091 20.012 183.749 19.994 183.533 19.958C183.551 19.814 183.56 19.625 183.56 19.391C183.56 18.347 183.281 17.51 182.723 16.88C182.183 16.232 181.499 15.908 180.671 15.908C179.843 15.908 179.186 16.133 178.7 16.583C178.232 17.015 177.998 17.636 177.998 18.446C177.998 19.238 178.277 19.931 178.835 20.525C179.411 21.101 180.104 21.605 180.914 22.037C181.742 22.469 182.561 22.928 183.371 23.414C184.199 23.882 184.892 24.521 185.45 25.331C186.026 26.123 186.314 27.113 186.314 28.301C186.314 29.471 185.828 30.452 184.856 31.244C183.902 32.018 182.723 32.405 181.319 32.405C178.781 32.405 176.783 31.721 175.325 30.353C175.397 29.921 175.541 29.525 175.757 29.165C175.991 28.805 176.207 28.562 176.405 28.436L176.675 28.22Z" fill="white"/>
<defs>
<linearGradient id="paint0_linear_75_425" x1="3.32102" y1="34.1558" x2="44.2419" y2="12.8986" gradientUnits="userSpaceOnUse">
<stop offset="0.043" stop-color="white"/>
<stop offset="0.382" stop-color="#174A5F"/>
<stop offset="0.989" stop-color="white"/>
</linearGradient>
<clipPath id="clip0_75_425">
<rect width="47" height="47" fill="white" transform="translate(0.119141)"/>
</clipPath>
</defs>
</svg>
