<svg width="16" height="16" viewBox="0 0 16 16" fill="none" xmlns="http://www.w3.org/2000/svg">
<path d="M14.1245 3.19762C13.9859 3.20175 13.8544 3.25966 13.7578 3.35908L5.60154 11.5153L2.24529 8.15908C2.19615 8.10789 2.13728 8.06703 2.07215 8.03887C2.00701 8.01072 1.93692 7.99585 1.86596 7.99513C1.79501 7.99441 1.72462 8.00785 1.65893 8.03467C1.59323 8.06149 1.53355 8.10115 1.48337 8.15133C1.4332 8.2015 1.39354 8.26118 1.36672 8.32688C1.3399 8.39257 1.32645 8.46296 1.32718 8.53391C1.3279 8.60487 1.34277 8.67497 1.37092 8.7401C1.39907 8.80524 1.43994 8.8641 1.49113 8.91324L5.22446 12.6466C5.32448 12.7466 5.46012 12.8027 5.60154 12.8027C5.74297 12.8027 5.8786 12.7466 5.97863 12.6466L14.512 4.11324C14.589 4.03833 14.6417 3.94188 14.663 3.83654C14.6843 3.73119 14.6733 3.62187 14.6314 3.52289C14.5895 3.42391 14.5187 3.3399 14.4282 3.28185C14.3378 3.22381 14.2319 3.19445 14.1245 3.19762Z" fill="#2F1073"/>
</svg>
