<svg width="24" height="21" viewBox="0 0 24 21" fill="none" xmlns="http://www.w3.org/2000/svg">
<path d="M14.39 20.66L24 11L14.39 1.33996C14.3032 1.22599 14.1929 1.13199 14.0667 1.06434C13.9404 0.996684 13.8011 0.956952 13.6581 0.94783C13.5151 0.938708 13.3719 0.960411 13.238 1.01147C13.1042 1.06252 12.9828 1.14174 12.8823 1.24376C12.7817 1.34578 12.7042 1.46822 12.6551 1.60278C12.6059 1.73735 12.5863 1.8809 12.5975 2.02372C12.6086 2.16654 12.6503 2.3053 12.7198 2.4306C12.7892 2.55589 12.8848 2.66481 13 2.74996L20.19 9.99996L1.06 9.99996C0.794783 9.99996 0.54043 10.1053 0.352894 10.2929C0.165358 10.4804 0.0599995 10.7347 0.0599995 11C0.0599995 11.2652 0.165358 11.5195 0.352894 11.7071C0.54043 11.8946 0.794783 12 1.06 12L20.19 12L13 19.25C12.813 19.4383 12.7085 19.6931 12.7094 19.9585C12.7104 20.2239 12.8167 20.478 13.005 20.665C13.1933 20.8519 13.4482 20.9565 13.7135 20.9555C13.9789 20.9546 14.233 20.8483 14.42 20.66H14.39Z" fill="#174A5F"/>
</svg>
